<svg id='Duplicate_24' width='24' height='24' viewBox='0 0 24 24' xmlns='http://www.w3.org/2000/svg' xmlns:xlink='http://www.w3.org/1999/xlink'><rect width='24' height='24' stroke='none' fill='#000' opacity='1'/>

  <g transform="matrix(0.83 0 0 0.83 12 12)" >
    <g style="" >
    <g transform="matrix(1 0 0 1 -3 -3)" >
      <path style="stroke: none; stroke-width: 1; stroke-dasharray: none; stroke-linecap: butt; stroke-dashoffset: 0; stroke-linejoin: miter; stroke-miterlimit: 4; fill: crimson; fill-rule: evenodd; opacity: 1;" transform=" translate(-9, -9)" d="M 0 2 C 0 0.895429 0.895431 0 2 0 L 16 0 C 17.1046 0 18 0.895432 18 2 L 18 3.5 C 18 4.05228 17.5523 4.5 17 4.5 C 16.4477 4.5 16 4.05228 16 3.5 L 16 2 L 2 2 L 2 16 L 3.5 16 C 4.05228 16 4.5 16.4477 4.5 17 C 4.5 17.5523 4.05228 18 3.5 18 L 2 18 C 0.89543 18 0 17.1046 0 16 L 0 2 Z" stroke-linecap="square" />
    </g>
    <g transform="matrix(1 0 0 1 3 3)" >
      <path style="stroke: none; stroke-width: 1; stroke-dasharray: none; stroke-linecap: butt; stroke-dashoffset: 0; stroke-linejoin: miter; stroke-miterlimit: 4; fill: steelblue; fill-rule: evenodd; opacity: 1;" transform=" translate(-15, -15)" d="M 8 6 C 6.89543 6 6 6.89543 6 8 L 6 22 C 6 23.1046 6.89543 24 8 24 L 22 24 C 23.1046 24 24 23.1046 24 22 L 24 8 C 24 6.89543 23.1046 6 22 6 L 8 6 Z" stroke-linecap="square" />
    </g>
    </g>
  </g>
</svg>
